<svg id="Capa_1" data-name="Capa 1" xmlns="http://www.w3.org/2000/svg" viewBox="0 0 265.64 55.75"><defs><style>.cls-1{fill:#bd1622;}.cls-2{fill:none;stroke:#fff;stroke-miterlimit:10;stroke-width:2px;}.cls-3{fill:#fff;}</style></defs><path class="cls-1" d="M90.92,18.63a11.37,11.37,0,0,1-2.47,7.6,9,9,0,0,1-7.27,3.09c-.51,0-1.29,0-2.33-.09s-1.82-.09-2.34-.09-.83.24-.83.72,0,1.48.17,2.65.18,2.06.18,2.64c0,.3-.14.45-.41.45-.79,0-2,0-3.55-.07s-2.76-.07-3.55-.07A.5.5,0,0,1,68,34.9c0-1.44,0-3.59.07-6.47s.07-5,.07-6.46q0-6.09-.53-12.8l0-.27c0-.25.17-.39.58-.45,1-.13,3.24-.19,6.67-.19,2,0,4,0,5.84.08a10.61,10.61,0,0,1,7.41,2.89A9.93,9.93,0,0,1,90.92,18.63Zm-7.74.31q0-4.52-4.4-4.51c-2.07,0-3.16.11-3.26.34a32.43,32.43,0,0,0-.13,4.48c0,.4,0,1,0,1.78s0,1.37,0,1.77,1.17.39,3.49.39Q83.19,23.19,83.18,18.94Z" transform="translate(-9.33 -7.45)"/><path class="cls-1" d="M112,29.43a25.24,25.24,0,0,1-.33,3.07,12.07,12.07,0,0,1-.62,2.88.72.72,0,0,1-.64.37,4.76,4.76,0,0,1-.59-.06c-.94-.12-3.69-.19-8.25-.19l-4.44,0-4.43,0c-.42,0-.64-.19-.64-.56,0-1.45.09-3.62.25-6.52s.24-5.08.24-6.53-.08-4.22-.23-8.24c0-1-.11-2.58-.22-4.63l0-.27c0-.3.14-.45.49-.45,1,0,2.39,0,4.31.08s3.36.08,4.32.08,2.36,0,4.26-.08,3.32-.08,4.27-.08c.67,0,1.06.25,1.16.76q.1.44.3,2.7c.14,1.51.2,2.42.2,2.74s-.12.41-.38.41l-.41,0q-5.16-.42-9.27-.42-1,0-1.26.48A6.54,6.54,0,0,0,100,16.4a2.76,2.76,0,0,0,.38,1.75,1.69,1.69,0,0,0,1.26.37l.76,0,.93,0c1.63,0,3.28-.05,4.94-.14l1.07-.09a7.88,7.88,0,0,1,1.05-.08c.31,0,.46.15.46.44,0-.27-.11.72-.35,3-.1,1-.15,2.07-.15,3.1,0,.26-.19.39-.56.39L108,24.86q-1.11-.12-5-.12h-2.06c-.52,0-.84.13-.93.39,0,.06,0,.46,0,1.2a5.71,5.71,0,0,0,.19,1.9c.22.49,1,.78,2.48.87h2.83c.69,0,1.7-.06,3-.18s2.37-.19,3-.19C111.85,28.73,112,29,112,29.43Z" transform="translate(-9.33 -7.45)"/><path class="cls-1" d="M136.26,35.27c0,.09-.13.15-.39.19a32.54,32.54,0,0,1-3.7.12,32.08,32.08,0,0,1-3.46-.12,1.79,1.79,0,0,1-.48-.1c-.08,0-.17-.16-.27-.38-.2-.51-.48-1.26-.86-2.25q-.75-1.93-2.36-5.72c-.23-.51-.77-.78-1.61-.84.39,0-.28,0-2,0-.19,0-.29.33-.29,1,0,.88.08,2.19.24,3.94s.25,3,.25,3.93q0,.33-.18.39l-.54,0c-.76,0-2,.08-3.57.08a24.74,24.74,0,0,1-3.33-.12c-.38-.08-.56-.28-.56-.6,0-1.42.06-3.57.2-6.44s.2-5,.2-6.45q0-8.2-.37-12.8l0-.27c0-.22.2-.37.62-.45s2.39-.15,5.92-.23c2.39-.05,4.3-.08,5.72-.08a12.13,12.13,0,0,1,7.21,2,7.47,7.47,0,0,1,3.16,6.5,10.52,10.52,0,0,1-.81,4.51,9.26,9.26,0,0,1-3,3.28c-.3.21-.44.4-.44.58,0,0,.78,1.61,2.36,4.87A34.67,34.67,0,0,1,136.26,35.27Zm-8.15-17.39a3.47,3.47,0,0,0-1.55-3.28,7.69,7.69,0,0,0-3.76-.7c-1.23,0-1.88.19-2,.56a33.77,33.77,0,0,0-.11,3.8c0,.3,0,.74,0,1.32s0,1,0,1.3c0,.07.21.13.63.2a17.78,17.78,0,0,0,2.48.17Q128.12,21.25,128.11,17.88Z" transform="translate(-9.33 -7.45)"/><path class="cls-1" d="M159.66,31.08a1.39,1.39,0,0,1-.41.81,11.74,11.74,0,0,1-9.48,4.25A12.67,12.67,0,0,1,140,32a14.34,14.34,0,0,1-3.66-10.08,14.71,14.71,0,0,1,3.59-10,12,12,0,0,1,9.52-4.3c4.18,0,7.47,1.29,9.84,3.86a1.19,1.19,0,0,1,.39.75A12.27,12.27,0,0,1,158.3,15a15.4,15.4,0,0,1-1.7,2.65.51.51,0,0,1-.39.16,5.27,5.27,0,0,1-1-.78,10.36,10.36,0,0,0-2.05-1.45,6.92,6.92,0,0,0-3.18-.78,5.56,5.56,0,0,0-4.56,2.14,7.58,7.58,0,0,0-1.57,4.88,7.74,7.74,0,0,0,1.57,4.95A5.53,5.53,0,0,0,150,28.91a7.25,7.25,0,0,0,3.2-.74,9.5,9.5,0,0,0,2-1.36,5,5,0,0,1,.95-.73.55.55,0,0,1,.39.21c.21.23.77,1,1.69,2.42A14.4,14.4,0,0,1,159.66,31.08Z" transform="translate(-9.33 -7.45)"/><path class="cls-1" d="M186.35,34.86c0,.27-.06.44-.18.5a1.34,1.34,0,0,1-.54.1c-.79.08-1.9.12-3.34.12a27.35,27.35,0,0,1-3.57-.12c-.36-.08-.54-.25-.54-.52,0-1,0-2.56.15-4.61s.14-3.58.14-4.6q0-.77-.42-.87a34.42,34.42,0,0,0-4.69-.16,35,35,0,0,0-4.73.16c-.29.06-.43.35-.43.87,0,1,0,2.52.1,4.53s.09,3.51.09,4.52a.6.6,0,0,1-.52.68,29.85,29.85,0,0,1-3.65.12,27.2,27.2,0,0,1-3.33-.12.57.57,0,0,1-.56-.6c0-1.4.07-3.5.2-6.32s.2-4.93.2-6.34-.06-3.75-.19-6.76-.19-5.25-.19-6.75c0-.29.13-.43.4-.43s1,0,1.82.06,1.41.06,1.81.06,1,0,1.87-.06,1.46-.06,1.87-.06c.22,0,.33.12.33.35q0,1.46-.21,4.35c-.14,1.93-.22,3.38-.22,4.35,0,.46.13.72.37.8a38.68,38.68,0,0,0,5,.15,38.68,38.68,0,0,0,4.8-.15c.31-.08.47-.34.47-.8,0-.93,0-2.33-.14-4.21s-.13-3.3-.13-4.24q0-.6.48-.6c.38,0,.95,0,1.72.06s1.35.06,1.73.06,1,0,1.72-.06,1.35-.06,1.73-.06.57.16.57.47q0,2.22-.19,6.72t-.18,6.75q0,2.11.2,6.34C186.28,31.36,186.35,33.46,186.35,34.86Z" transform="translate(-9.33 -7.45)"/><path class="cls-1" d="M208.34,29.43A25.24,25.24,0,0,1,208,32.5a11.56,11.56,0,0,1-.62,2.88.72.72,0,0,1-.64.37,4.48,4.48,0,0,1-.58-.06c-.95-.12-3.7-.19-8.26-.19l-4.44,0-4.42,0c-.43,0-.64-.19-.64-.56q0-2.17.24-6.52c.16-2.91.24-5.08.24-6.53s-.08-4.22-.23-8.24c0-1-.11-2.58-.22-4.63V8.71q0-.45.48-.45c1,0,2.39,0,4.31.08s3.36.08,4.32.08,2.36,0,4.26-.08,3.32-.08,4.27-.08c.67,0,1.06.25,1.16.76q.11.44.3,2.7c.14,1.51.21,2.42.21,2.74s-.13.41-.39.41l-.41,0q-5.16-.42-9.27-.42-1,0-1.26.48a6.54,6.54,0,0,0-.09,1.49,2.76,2.76,0,0,0,.38,1.75,1.69,1.69,0,0,0,1.26.37l.76,0,.93,0c1.63,0,3.28-.05,4.95-.14l1.06-.09a7.88,7.88,0,0,1,1.05-.08c.31,0,.46.15.46.44,0-.27-.11.72-.35,3-.1,1-.15,2.07-.15,3.1,0,.26-.19.39-.56.39l-1.75-.19c-.73-.08-2.42-.12-5-.12h-2q-.79,0-.93.39c0,.06,0,.46,0,1.2a5.71,5.71,0,0,0,.19,1.9c.22.49,1.05.78,2.48.87h2.83q1,0,3.06-.18c1.35-.12,2.36-.19,3-.19C208.19,28.73,208.34,29,208.34,29.43Z" transform="translate(-9.33 -7.45)"/><path class="cls-1" d="M232.6,35.27c0,.09-.13.15-.39.19a32.54,32.54,0,0,1-3.7.12,32.08,32.08,0,0,1-3.46-.12,1.79,1.79,0,0,1-.48-.1c-.08,0-.17-.16-.27-.38-.2-.51-.48-1.26-.86-2.25q-.75-1.93-2.36-5.72c-.23-.51-.77-.78-1.61-.84.39,0-.28,0-2,0-.19,0-.29.33-.29,1,0,.88.08,2.19.25,3.94s.24,3,.24,3.93q0,.33-.18.39l-.54,0c-.76,0-1.95.08-3.57.08a24.74,24.74,0,0,1-3.33-.12c-.38-.08-.56-.28-.56-.6,0-1.42.06-3.57.2-6.44s.2-5,.2-6.45q0-8.2-.37-12.8l0-.27c0-.22.19-.37.62-.45s2.39-.15,5.92-.23c2.39-.05,4.3-.08,5.72-.08a12.1,12.1,0,0,1,7.21,2,7.47,7.47,0,0,1,3.16,6.5,10.52,10.52,0,0,1-.81,4.51,9.26,9.26,0,0,1-3,3.28c-.3.21-.44.4-.44.58,0,0,.78,1.61,2.36,4.87A34.67,34.67,0,0,1,232.6,35.27Zm-8.15-17.39a3.47,3.47,0,0,0-1.55-3.28,7.69,7.69,0,0,0-3.76-.7c-1.23,0-1.88.19-2,.56a36.63,36.63,0,0,0-.11,3.8c0,.3,0,.74,0,1.32s0,1,0,1.3c0,.07.2.13.62.2a17.78,17.78,0,0,0,2.48.17Q224.46,21.25,224.45,17.88Z" transform="translate(-9.33 -7.45)"/><path class="cls-1" d="M260.29,21.89A14.23,14.23,0,0,1,256.43,32a14,14,0,0,1-19.91,0,14.1,14.1,0,0,1-3.88-10.1,14.19,14.19,0,0,1,3.88-10.14,13.83,13.83,0,0,1,19.87,0A14.27,14.27,0,0,1,260.29,21.89Zm-7.35,0a7.29,7.29,0,0,0-1.76-4.94,6,6,0,0,0-4.72-2.14A5.9,5.9,0,0,0,241.83,17,7.3,7.3,0,0,0,240,21.89a7.22,7.22,0,0,0,1.72,4.94,6.25,6.25,0,0,0,9.41-.11A7.22,7.22,0,0,0,252.94,21.85Z" transform="translate(-9.33 -7.45)"/><path class="cls-1" d="M275,26.54a8.55,8.55,0,0,1-3.31,6.75,14.19,14.19,0,0,1-7.08,3.16l-.25,0c-.3,0-1-.91-2-2.72a11.83,11.83,0,0,1-1.53-3.33c0-.14.09-.23.29-.27a20.6,20.6,0,0,0,3.72-1.09,3.19,3.19,0,0,0,2-3,4.55,4.55,0,0,0-1.32-2.81c-1.53-1.76-2.35-2.74-2.48-2.93a7.85,7.85,0,0,1-1.34-4.46A7,7,0,0,1,265,10a14.63,14.63,0,0,1,6.57-2.53h.33c.19,0,.35.15.46.46q.51,1.41,2.35,5.12a.45.45,0,0,1,.06.19c0,.22-.12.33-.35.33a3.7,3.7,0,0,1-.52-.06,5.49,5.49,0,0,0-.57-.05,4.56,4.56,0,0,0-2.44.64,2.27,2.27,0,0,0-1.26,2A5.09,5.09,0,0,0,271,19c1.64,2.07,2.5,3.15,2.57,3.26A7.75,7.75,0,0,1,275,26.54Z" transform="translate(-9.33 -7.45)"/><path class="cls-1" d="M86.2,52.2c0,4.26-2.57,10.46-11.3,10.46H68.16V41.44h6.63C82,41.44,86.2,45.73,86.2,52.2Zm-2,0c0-5.93-4-9-10-9H70.14V60.86h4.23C80.27,60.86,84.23,57.74,84.23,52.2Z" transform="translate(-9.33 -7.45)"/><path class="cls-1" d="M90.64,41.44h13v1.8h-11v7.55h10.31v1.8H92.62v8.27H104.1v1.8H90.64Z" transform="translate(-9.33 -7.45)"/><path class="cls-1" d="M125.32,44.23l-1.62,1.35A6.73,6.73,0,0,0,118,42.7c-5.39,0-9,4-9,9.35s3.51,9.35,9,9.35a7.64,7.64,0,0,0,6.27-3.3l1.62,1.23A9.19,9.19,0,0,1,118,63.2c-6.53,0-11-4.77-11-11.15s4.55-11.15,11-11.15A8.8,8.8,0,0,1,125.32,44.23Z" transform="translate(-9.33 -7.45)"/><path class="cls-1" d="M273.49,43l-1.71,1.23a4.72,4.72,0,0,0-4.13-2.1c-2.79,0-4.77,1.56-4.77,4,0,2.16,1.17,3.39,4.44,4.35,3.68,1.11,6.5,2,6.5,6.17,0,3.45-2.76,6-6.59,6a7.94,7.94,0,0,1-6.9-3.21l1.89-1.26a5.34,5.34,0,0,0,4.86,2.67c2.75,0,4.76-1.71,4.76-4.17,0-2.78-2-3.32-6.23-4.73-3.18-1.05-4.71-2.79-4.71-5.79,0-3.5,2.91-5.81,6.81-5.81A6.89,6.89,0,0,1,273.49,43Z" transform="translate(-9.33 -7.45)"/><circle class="cls-1" cx="130.26" cy="44.4" r="8.92"/><circle class="cls-1" cx="236.98" cy="44.61" r="8.92"/><path class="cls-1" d="M153.86,62.35V41.13h5.72c4.92,0,7.4,1.95,7.4,5.57,0,3-1.65,4.95-5.42,5.46l6.17,10.19h-2.25l-6-10.07h-3.69V62.35Zm6.32-11.87c3.06,0,4.82-1.5,4.82-3.78s-1.67-3.77-4.88-3.77h-4.29v7.55Z" transform="translate(-9.33 -7.45)"/><path class="cls-1" d="M168.87,62.35l9.26-21.22h2l8.93,21.22h-2.22l-2.3-5.64H173.34l-2.4,5.64Zm5.25-7.43h9.74l-4.8-11.63Z" transform="translate(-9.33 -7.45)"/><path class="cls-1" d="M189.61,41.13H206.1v1.8h-7.26V62.35h-2V42.93h-7.26Z" transform="translate(-9.33 -7.45)"/><path class="cls-1" d="M211.34,62.35h-2V41.13h2Z" transform="translate(-9.33 -7.45)"/><path class="cls-1" d="M216.29,41.13l6.83,18.61L230,41.13h2.1l-8.06,21.22h-2l-7.91-21.22Z" transform="translate(-9.33 -7.45)"/><rect class="cls-1" y="0.7" width="53.88" height="53.88" rx="0.62"/><path class="cls-2" d="M53,31q0,6.54-3.43,10.58-3.68,4.29-10.12,4.3c-.72,0-1.81,0-3.26-.13s-2.53-.12-3.25-.12-1.16.34-1.16,1c0,.83.08,2.06.24,3.7s.25,2.86.25,3.67c0,.42-.19.62-.57.62-1.1,0-2.75,0-4.94-.09s-3.84-.1-4.94-.1a.7.7,0,0,1-.79-.78c0-2,0-5,.1-9s.09-7,.09-9q0-8.47-.73-17.82l0-.37c0-.35.23-.55.81-.63q2.1-.27,9.29-.27,4.23,0,8.12.11A14.78,14.78,0,0,1,49,20.7,13.83,13.83,0,0,1,53,31Zm-10.77.43q0-6.28-6.13-6.29c-2.88,0-4.39.16-4.54.49a44.83,44.83,0,0,0-.19,6.23c0,.56,0,1.38.07,2.47s.07,1.92.07,2.47q0,.54,4.86.54Q42.27,37.35,42.26,31.44Z" transform="translate(-9.33 -7.45)"/><path class="cls-3" d="M35.68,25.33c3.63,0,6.7,1.7,6.7,6,0,3.81-3,6-6.39,6H31.78v-12Zm0,9.54c2.25,0,4-1,4-3.64,0-2.38-1.82-3.47-3.88-3.47H34.32v7.11Z" transform="translate(-9.33 -7.45)"/><circle class="cls-3" cx="50.69" cy="51.56" r="1.5"/><circle class="cls-3" cx="50.69" cy="3.68" r="1.5"/><circle class="cls-3" cx="3.18" cy="3.68" r="1.5"/><circle class="cls-3" cx="3.18" cy="51.56" r="1.5"/></svg>