<?xml version="1.0" encoding="utf-8"?>
<!-- Generator: Adobe Illustrator 26.0.1, SVG Export Plug-In . SVG Version: 6.00 Build 0)  -->
<svg version="1.1" id="Capa_1" xmlns="http://www.w3.org/2000/svg" xmlns:xlink="http://www.w3.org/1999/xlink" x="0px" y="0px"
	 viewBox="0 0 518.08 113.98" style="enable-background:new 0 0 518.08 113.98;" xml:space="preserve">
<style type="text/css">
	.st0{fill:#FFFFFF;}
	.st1{font-family:'Avenir-Light';}
	.st2{font-size:56.194px;}
	.st3{fill:#AE1622;}
</style>
<g>
	<path class="st0" d="M162.97,25.33c0,5.87-1.54,10.61-4.62,14.25c-3.3,3.85-7.84,5.78-13.63,5.78c-0.97,0-2.43-0.05-4.38-0.16
		c-1.95-0.11-3.41-0.16-4.38-0.16c-1.04,0-1.56,0.45-1.56,1.34c0,1.12,0.11,2.78,0.33,4.98c0.22,2.21,0.33,3.85,0.33,4.94
		c0,0.56-0.25,0.84-0.76,0.84c-1.48,0-3.7-0.04-6.65-0.13c-2.96-0.09-5.17-0.13-6.65-0.13c-0.7,0-1.05-0.35-1.05-1.05
		c0-2.69,0.04-6.73,0.13-12.12c0.09-5.39,0.13-9.43,0.13-12.12c0-7.61-0.33-15.61-0.98-23.99l-0.04-0.51
		c-0.05-0.46,0.31-0.74,1.09-0.84c1.89-0.24,6.06-0.36,12.51-0.36c3.8,0,7.45,0.05,10.94,0.15c5.74,0.17,10.37,1.97,13.89,5.42
		C161.18,14.99,162.97,19.61,162.97,25.33z M148.47,25.92c0-5.65-2.75-8.47-8.25-8.47c-3.88,0-5.91,0.22-6.11,0.65
		c-0.17,0.31-0.25,3.11-0.25,8.4c0,0.75,0.03,1.86,0.09,3.33c0.06,1.47,0.09,2.58,0.09,3.33c0,0.49,2.18,0.73,6.54,0.73
		C145.84,33.88,148.47,31.22,148.47,25.92z"/>
	<path class="st0" d="M202.5,45.58c0,1.04-0.21,2.96-0.62,5.74c-0.44,3.03-0.82,4.84-1.16,5.42c-0.29,0.46-0.69,0.69-1.2,0.69
		c-0.22,0-0.58-0.04-1.09-0.11c-1.77-0.24-6.93-0.36-15.49-0.36c-1.87,0-4.64-0.01-8.32-0.04c-3.68-0.03-6.45-0.04-8.29-0.04
		c-0.8,0-1.2-0.35-1.2-1.05c0-2.71,0.15-6.79,0.46-12.23c0.3-5.44,0.45-9.52,0.45-12.23c0-2.76-0.15-7.91-0.44-15.45
		c-0.07-1.94-0.21-4.84-0.4-8.69l-0.04-0.51c-0.05-0.56,0.25-0.83,0.91-0.83c1.79,0,4.49,0.05,8.09,0.15
		c3.6,0.1,6.29,0.15,8.09,0.15c1.77,0,4.43-0.05,8-0.15c3.56-0.1,6.23-0.15,8-0.15c1.26,0,1.99,0.47,2.18,1.42
		c0.12,0.56,0.31,2.25,0.56,5.07c0.25,2.82,0.38,4.54,0.38,5.14c0,0.51-0.24,0.76-0.73,0.76c-0.15,0-0.4-0.01-0.76-0.04
		c-6.45-0.53-12.24-0.8-17.37-0.8c-1.28,0-2.07,0.3-2.36,0.91c-0.12,0.29-0.18,1.23-0.18,2.8c0,1.65,0.24,2.74,0.73,3.27
		c0.41,0.46,1.2,0.69,2.36,0.69c0.24,0,0.71-0.02,1.42-0.05c0.7-0.04,1.28-0.05,1.74-0.05c3.05,0,6.14-0.09,9.27-0.25
		c0.27-0.02,0.93-0.08,2-0.18c0.82-0.1,1.48-0.15,1.96-0.15c0.58,0,0.87,0.28,0.87,0.83c0-0.51-0.22,1.34-0.66,5.56
		c-0.19,1.94-0.29,3.88-0.29,5.82c0,0.48-0.35,0.73-1.05,0.73L195.05,37c-1.38-0.15-4.53-0.22-9.45-0.22h-3.85
		c-0.99,0-1.58,0.24-1.75,0.73c-0.02,0.12-0.04,0.87-0.04,2.25c0,1.84,0.12,3.03,0.36,3.56c0.41,0.92,1.96,1.47,4.65,1.64
		c-0.05,0,1.72,0,5.31,0c1.28,0,3.19-0.11,5.72-0.35c2.53-0.23,4.43-0.35,5.69-0.35C202.23,44.27,202.5,44.71,202.5,45.58z"/>
	<path class="st0" d="M247.98,56.52c0,0.17-0.24,0.29-0.73,0.36c-0.92,0.15-3.24,0.22-6.94,0.22c-3.17,0-5.33-0.07-6.47-0.22
		c-0.53-0.07-0.83-0.13-0.91-0.18c-0.15-0.07-0.32-0.31-0.51-0.73c-0.36-0.94-0.9-2.35-1.6-4.22c-0.95-2.42-2.42-6-4.43-10.72
		c-0.44-0.94-1.44-1.47-3.02-1.56c0.73,0.05-0.52,0.07-3.74,0.07c-0.36,0-0.55,0.62-0.55,1.85c0,1.65,0.15,4.11,0.46,7.38
		c0.3,3.27,0.45,5.73,0.45,7.38c0,0.41-0.11,0.65-0.33,0.73c-0.34,0.02-0.68,0.05-1.02,0.07c-1.43,0.1-3.66,0.15-6.69,0.15
		c-3.47,0-5.55-0.07-6.25-0.22c-0.7-0.15-1.05-0.52-1.05-1.13c0-2.67,0.13-6.69,0.38-12.07c0.25-5.38,0.38-9.42,0.38-12.11
		c0-10.25-0.23-18.25-0.69-23.99l-0.04-0.51c-0.02-0.41,0.36-0.69,1.14-0.84s4.49-0.29,11.11-0.44c4.48-0.1,8.06-0.15,10.72-0.15
		c5.52,0,10.03,1.25,13.52,3.75c3.95,2.81,5.93,6.87,5.93,12.18c0,3.54-0.51,6.36-1.53,8.47c-1.02,2.11-2.9,4.16-5.63,6.14
		c-0.56,0.39-0.84,0.75-0.84,1.09c0-0.02,1.48,3.02,4.43,9.12C246.5,52.52,247.98,55.89,247.98,56.52z M232.71,23.92
		c0-2.96-0.97-5-2.91-6.14c-1.5-0.87-3.85-1.31-7.05-1.31c-2.3,0-3.53,0.35-3.67,1.05c-0.15,0.82-0.22,3.2-0.22,7.12
		c0,0.56,0.01,1.38,0.04,2.47c0.02,1.09,0.04,1.9,0.04,2.43c0,0.12,0.39,0.24,1.16,0.36c1.48,0.22,3.03,0.33,4.65,0.33
		C230.06,30.24,232.71,28.13,232.71,23.92z"/>
	<path class="st0" d="M291.87,48.67c0,0.39-0.25,0.9-0.76,1.53c-4.46,5.31-10.39,7.96-17.78,7.96c-7.56,0-13.69-2.58-18.39-7.74
		c-4.58-4.99-6.87-11.29-6.87-18.9c0-7.37,2.24-13.62,6.73-18.76c4.67-5.38,10.63-8.07,17.85-8.07c7.85,0,14.01,2.41,18.47,7.23
		c0.48,0.53,0.73,1.01,0.73,1.42c0,0.46-0.85,2.17-2.53,5.13c-1.68,2.96-2.74,4.62-3.18,4.98c-0.19,0.19-0.43,0.29-0.72,0.29
		c-0.12,0-0.73-0.48-1.82-1.45c-1.31-1.16-2.59-2.07-3.85-2.73c-1.92-0.97-3.91-1.45-5.97-1.45c-3.56,0-6.41,1.33-8.54,4
		c-1.96,2.47-2.94,5.52-2.94,9.16c0,3.68,0.98,6.77,2.94,9.27c2.13,2.71,4.98,4.07,8.54,4.07c2.11,0,4.11-0.46,6-1.38
		c1.23-0.61,2.49-1.45,3.78-2.54c1.07-0.92,1.66-1.38,1.78-1.38c0.24,0,0.48,0.13,0.73,0.4c0.39,0.44,1.44,1.95,3.16,4.54
		C290.98,46.93,291.87,48.4,291.87,48.67z"/>
	<path class="st0" d="M341.89,55.76c0,0.51-0.11,0.82-0.33,0.94c-0.1,0.07-0.44,0.13-1.02,0.18c-1.48,0.15-3.56,0.22-6.25,0.22
		c-3.81,0-6.04-0.07-6.71-0.22c-0.67-0.15-1-0.47-1-0.98c0-1.91,0.09-4.79,0.27-8.63c0.18-3.84,0.27-6.72,0.27-8.63
		c0-0.94-0.27-1.49-0.8-1.64c-0.82-0.19-3.76-0.29-8.8-0.29c-5.07,0-8.02,0.1-8.87,0.29c-0.53,0.12-0.8,0.67-0.8,1.64
		c0,1.89,0.06,4.72,0.18,8.49c0.12,3.77,0.18,6.6,0.18,8.49c0,0.73-0.33,1.15-0.98,1.27c-0.78,0.15-3.05,0.22-6.83,0.22
		c-3.27,0-5.36-0.07-6.25-0.22c-0.7-0.12-1.05-0.5-1.05-1.13c0-2.62,0.13-6.57,0.38-11.85c0.25-5.28,0.38-9.24,0.38-11.89
		c0-2.81-0.12-7.03-0.36-12.67c-0.24-5.63-0.36-9.86-0.36-12.67c0-0.53,0.25-0.8,0.76-0.8c0.75,0,1.88,0.04,3.4,0.11
		c1.51,0.07,2.65,0.11,3.4,0.11c0.78,0,1.94-0.04,3.51-0.11c1.57-0.07,2.73-0.11,3.51-0.11c0.41,0,0.62,0.22,0.62,0.65
		c0,1.82-0.14,4.54-0.4,8.16c-0.27,3.62-0.4,6.34-0.4,8.16c0,0.85,0.23,1.34,0.69,1.49c0.63,0.19,3.73,0.29,9.31,0.29
		c5.19,0,8.19-0.1,9.02-0.29c0.58-0.15,0.87-0.64,0.87-1.49c0-1.74-0.08-4.38-0.25-7.91c-0.17-3.53-0.25-6.17-0.25-7.94
		c0-0.75,0.3-1.13,0.91-1.13c0.7,0,1.77,0.04,3.22,0.11c1.44,0.07,2.53,0.11,3.25,0.11c0.7,0,1.77-0.04,3.22-0.11
		c1.44-0.07,2.53-0.11,3.25-0.11c0.7,0,1.05,0.29,1.05,0.87c0,2.79-0.11,6.99-0.34,12.61c-0.23,5.62-0.35,9.84-0.35,12.65
		c0,2.64,0.13,6.6,0.38,11.89S341.89,53.14,341.89,55.76z"/>
	<path class="st0" d="M383.13,45.58c0,1.04-0.21,2.96-0.62,5.74c-0.44,3.03-0.82,4.84-1.16,5.42c-0.29,0.46-0.69,0.69-1.2,0.69
		c-0.22,0-0.58-0.04-1.09-0.11c-1.77-0.24-6.93-0.36-15.49-0.36c-1.87,0-4.64-0.01-8.32-0.04c-3.68-0.03-6.45-0.04-8.29-0.04
		c-0.8,0-1.2-0.35-1.2-1.05c0-2.71,0.15-6.79,0.45-12.23c0.3-5.44,0.45-9.52,0.45-12.23c0-2.76-0.15-7.91-0.44-15.45
		c-0.07-1.94-0.21-4.84-0.4-8.69l-0.04-0.51c-0.05-0.56,0.25-0.83,0.91-0.83c1.79,0,4.49,0.05,8.09,0.15
		c3.6,0.1,6.29,0.15,8.09,0.15c1.77,0,4.44-0.05,8-0.15s6.23-0.15,8-0.15c1.26,0,1.99,0.47,2.18,1.42c0.12,0.56,0.31,2.25,0.56,5.07
		c0.25,2.82,0.38,4.54,0.38,5.14c0,0.51-0.24,0.76-0.73,0.76c-0.15,0-0.4-0.01-0.76-0.04c-6.45-0.53-12.24-0.8-17.37-0.8
		c-1.28,0-2.07,0.3-2.36,0.91c-0.12,0.29-0.18,1.23-0.18,2.8c0,1.65,0.24,2.74,0.73,3.27c0.41,0.46,1.2,0.69,2.36,0.69
		c0.24,0,0.71-0.02,1.42-0.05c0.7-0.04,1.28-0.05,1.74-0.05c3.05,0,6.14-0.09,9.27-0.25c0.27-0.02,0.93-0.08,2-0.18
		c0.82-0.1,1.48-0.15,1.96-0.15c0.58,0,0.87,0.28,0.87,0.83c0-0.51-0.22,1.34-0.65,5.56c-0.2,1.94-0.29,3.88-0.29,5.82
		c0,0.48-0.35,0.73-1.06,0.73L375.67,37c-1.38-0.15-4.53-0.22-9.45-0.22h-3.85c-0.99,0-1.58,0.24-1.75,0.73
		c-0.02,0.12-0.04,0.87-0.04,2.25c0,1.84,0.12,3.03,0.36,3.56c0.41,0.92,1.96,1.47,4.65,1.64c-0.05,0,1.72,0,5.31,0
		c1.28,0,3.19-0.11,5.73-0.35c2.53-0.23,4.43-0.35,5.69-0.35C382.86,44.27,383.13,44.71,383.13,45.58z"/>
	<path class="st0" d="M428.61,56.52c0,0.17-0.24,0.29-0.73,0.36c-0.92,0.15-3.24,0.22-6.94,0.22c-3.18,0-5.33-0.07-6.47-0.22
		c-0.53-0.07-0.84-0.13-0.91-0.18c-0.15-0.07-0.31-0.31-0.51-0.73c-0.36-0.94-0.9-2.35-1.6-4.22c-0.94-2.42-2.42-6-4.43-10.72
		c-0.44-0.94-1.44-1.47-3.02-1.56c0.73,0.05-0.52,0.07-3.74,0.07c-0.36,0-0.55,0.62-0.55,1.85c0,1.65,0.15,4.11,0.45,7.38
		c0.3,3.27,0.46,5.73,0.46,7.38c0,0.41-0.11,0.65-0.33,0.73c-0.34,0.02-0.68,0.05-1.02,0.07c-1.43,0.1-3.66,0.15-6.69,0.15
		c-3.47,0-5.55-0.07-6.25-0.22c-0.7-0.15-1.05-0.52-1.05-1.13c0-2.67,0.13-6.69,0.38-12.07c0.25-5.38,0.38-9.42,0.38-12.11
		c0-10.25-0.23-18.25-0.69-23.99l-0.04-0.51c-0.03-0.41,0.36-0.69,1.14-0.84c0.79-0.15,4.49-0.29,11.11-0.44
		c4.48-0.1,8.06-0.15,10.72-0.15c5.52,0,10.03,1.25,13.52,3.75c3.95,2.81,5.93,6.87,5.93,12.18c0,3.54-0.51,6.36-1.53,8.47
		c-1.02,2.11-2.9,4.16-5.63,6.14c-0.56,0.39-0.84,0.75-0.84,1.09c0-0.02,1.48,3.02,4.44,9.12
		C427.13,52.52,428.61,55.89,428.61,56.52z M413.34,23.92c0-2.96-0.97-5-2.91-6.14c-1.5-0.87-3.85-1.31-7.05-1.31
		c-2.3,0-3.53,0.35-3.67,1.05c-0.15,0.82-0.22,3.2-0.22,7.12c0,0.56,0.01,1.38,0.04,2.47c0.02,1.09,0.04,1.9,0.04,2.43
		c0,0.12,0.39,0.24,1.16,0.36c1.48,0.22,3.03,0.33,4.65,0.33C410.69,30.24,413.34,28.13,413.34,23.92z"/>
	<path class="st0" d="M480.53,31.44c0,7.56-2.41,13.9-7.23,19.01c-4.92,5.19-11.15,7.78-18.69,7.78c-7.49,0-13.7-2.62-18.65-7.85
		c-4.85-5.11-7.27-11.43-7.27-18.94c0-7.54,2.42-13.87,7.27-19.01c4.94-5.26,11.16-7.89,18.65-7.89c7.44,0,13.64,2.63,18.61,7.89
		C478.09,17.62,480.53,23.95,480.53,31.44z M466.75,31.37c0-3.64-1.1-6.72-3.31-9.27c-2.3-2.67-5.25-4-8.83-4
		c-3.42,0-6.31,1.38-8.69,4.14c-2.3,2.67-3.45,5.73-3.45,9.2c0,3.71,1.08,6.8,3.24,9.27c2.28,2.59,5.25,3.89,8.91,3.89
		c3.42,0,6.33-1.37,8.72-4.11C465.61,37.87,466.75,34.83,466.75,31.37z"/>
	<path class="st0" d="M508.06,40.16c0,4.92-2.07,9.14-6.22,12.65c-3.63,3.1-8.06,5.08-13.27,5.93c-0.19,0.02-0.35,0.04-0.47,0.04
		c-0.56,0-1.79-1.7-3.71-5.11c-1.91-3.4-2.87-5.48-2.87-6.23c0-0.27,0.18-0.44,0.55-0.51c3.51-0.8,5.84-1.48,6.98-2.04
		c2.52-1.26,3.78-3.13,3.78-5.6c0-1.57-0.83-3.33-2.47-5.27c-2.86-3.3-4.41-5.13-4.65-5.49c-1.67-2.52-2.51-5.31-2.51-8.36
		c0-4.43,2.05-8.12,6.14-11.05c3.34-2.42,7.45-4,12.32-4.73c0.27-0.02,0.47-0.04,0.62-0.04c0.36,0,0.65,0.29,0.87,0.87
		c0.63,1.77,2.1,4.97,4.4,9.6c0.07,0.15,0.11,0.27,0.11,0.36c0,0.41-0.22,0.62-0.66,0.62c-0.19,0-0.52-0.04-0.98-0.11
		c-0.46-0.07-0.81-0.11-1.05-0.11c-1.75,0-3.27,0.4-4.58,1.2c-1.58,0.92-2.36,2.21-2.36,3.85c0,1.48,0.87,3.3,2.62,5.45
		c3.08,3.88,4.69,5.91,4.83,6.11C507.2,34.87,508.06,37.52,508.06,40.16z"/>
</g>
<g>
	<path class="st0" d="M154.16,88.26c0,7.98-4.83,19.62-21.19,19.62h-12.65v-39.8h12.42C146.29,68.09,154.16,76.12,154.16,88.26z
		 M150.44,88.26c0-11.13-7.42-16.81-18.66-16.81h-7.76v33.05h7.93C143.03,104.51,150.44,98.66,150.44,88.26z"/>
	<path class="st0" d="M162.46,68.09h24.34v3.37h-20.63v14.17h19.34v3.37h-19.34v15.51h21.53v3.37h-25.24V68.09z"/>
	<path class="st0" d="M227.49,73.31l-3.04,2.53c-2.25-3.37-6.18-5.4-10.68-5.4c-10.12,0-16.86,7.42-16.86,17.54
		c0,9.95,6.58,17.54,16.86,17.54c4.55,0,9.39-2.42,11.75-6.18l3.04,2.3c-3.82,5.23-8.94,7.25-14.78,7.25
		c-12.25,0-20.57-8.94-20.57-20.91c0-12.25,8.54-20.91,20.57-20.91C219.22,67.07,224,68.87,227.49,73.31z"/>
</g>
<g>
	<path class="st0" d="M505.29,71.04l-3.2,2.3c-1.91-2.64-4.33-3.93-7.76-3.93c-5.23,0-8.94,2.92-8.94,7.53
		c0,4.05,2.19,6.35,8.32,8.15c6.91,2.08,12.2,3.71,12.2,11.58c0,6.46-5.17,11.19-12.37,11.19c-5.28,0-9.84-1.69-12.93-6.01
		l3.54-2.36c2.02,3.37,5.17,5,9.11,5c5.17,0,8.94-3.2,8.94-7.81c0-5.23-3.71-6.24-11.69-8.88c-5.96-1.97-8.83-5.23-8.83-10.85
		c0-6.58,5.45-10.9,12.76-10.9C498.77,66.04,502.48,67.44,505.29,71.04z"/>
</g>
<circle class="st0" cx="254.23" cy="87.61" r="16.73"/>
<circle class="st0" cx="454.33" cy="88" r="16.73"/>
<text transform="matrix(1 0 0 1 276.0254 107.8811)" class="st0 st1 st2">R</text>
<g>
	<path class="st0" d="M313.31,107.29l17.37-39.8h3.82l16.75,39.8h-4.16l-4.33-10.57h-21.08l-4.5,10.57H313.31z M323.15,93.35h18.27
		l-8.99-21.81L323.15,93.35z"/>
	<path class="st0" d="M352.2,67.5h30.91v3.37h-13.6v36.42h-3.71V70.87h-13.6V67.5z"/>
	<path class="st0" d="M392.94,107.29h-3.71V67.5h3.71V107.29z"/>
	<path class="st0" d="M402.21,67.5l12.82,34.91l12.93-34.91h3.93l-15.12,39.8h-3.71l-14.84-39.8H402.21z"/>
</g>
<path class="st0" d="M110.41,106.68H10.63c-0.34,0-0.62-0.28-0.62-0.62V6.28c0-0.34,0.28-0.62,0.62-0.62h99.78
	c0.34,0,0.62,0.28,0.62,0.62v99.78C111.03,106.4,110.75,106.68,110.41,106.68z"/>
<g>
	<path class="st3" d="M91.95,48.54c0,8.17-2.14,14.78-6.43,19.84c-4.59,5.37-10.92,8.05-18.98,8.05c-1.35,0-3.38-0.08-6.1-0.23
		c-2.72-0.15-4.75-0.23-6.1-0.23c-1.45,0-2.18,0.62-2.18,1.87c0,1.55,0.15,3.87,0.46,6.93c0.3,3.07,0.46,5.37,0.46,6.88
		c0,0.78-0.35,1.16-1.06,1.16c-2.06,0-5.15-0.06-9.26-0.18c-4.12-0.12-7.2-0.18-9.26-0.18c-0.98,0-1.47-0.49-1.47-1.47
		c0-3.75,0.06-9.37,0.18-16.88c0.12-7.51,0.18-13.14,0.18-16.88c0-10.6-0.46-21.73-1.37-33.41l-0.05-0.71
		c-0.07-0.64,0.44-1.03,1.52-1.17c2.63-0.34,8.44-0.51,17.41-0.51c5.3,0,10.38,0.07,15.24,0.2c8,0.24,14.44,2.75,19.34,7.54
		C89.45,34.13,91.95,40.57,91.95,48.54z M71.75,49.35c0-7.86-3.83-11.79-11.49-11.79c-5.4,0-8.23,0.3-8.5,0.91
		c-0.24,0.44-0.35,4.34-0.35,11.69c0,1.05,0.04,2.59,0.13,4.63c0.08,2.04,0.13,3.59,0.13,4.63c0,0.68,3.04,1.01,9.11,1.01
		C68.09,60.43,71.75,56.74,71.75,49.35z"/>
</g>
<circle class="st3" cx="105.05" cy="101.02" r="2.81"/>
<circle class="st3" cx="105.05" cy="11.27" r="2.81"/>
<circle class="st3" cx="15.97" cy="11.27" r="2.81"/>
<circle class="st3" cx="15.97" cy="101.02" r="2.81"/>
<rect x="47.37" y="32.8" class="st3" width="25.68" height="31.18"/>
<g>
	<path class="st0" d="M59.41,36.29c6.81,0,12.55,3.2,12.55,11.26c0,7.13-5.53,11.19-11.98,11.19h-7.87V36.29H59.41z M59.47,54.17
		c4.22,0,7.57-1.81,7.57-6.82c0-4.47-3.4-6.5-7.26-6.5h-2.92v13.32H59.47z"/>
</g>
</svg>
